<svg version="1.1" viewBox="0.0 0.0 113.38582677165354 113.38582677165354" fill="none" stroke="none" stroke-linecap="square" stroke-miterlimit="10" xmlns:xlink="http://www.w3.org/1999/xlink" xmlns="http://www.w3.org/2000/svg"><clipPath id="p.0"><path d="m0 0l113.385826 0l0 113.385826l-113.385826 0l0 -113.385826z" clip-rule="nonzero"/></clipPath><g clip-path="url(#p.0)"><path fill="#000000" fill-opacity="0.0" d="m0 0l113.385826 0l0 113.385826l-113.385826 0z" fill-rule="evenodd"/><g filter="url(#shadowFilter-p.1)"><use xlink:href="#p.1" transform="matrix(1.0 0.0 0.0 1.0 -1.5320889763779528 -1.285575328083986)"/></g><defs><filter id="shadowFilter-p.1" filterUnits="userSpaceOnUse"><feGaussianBlur in="SourceAlpha" stdDeviation="0.5" result="blur"/><feComponentTransfer in="blur" color-interpolation-filters="sRGB"><feFuncR type="linear" slope="0" intercept="0.77254903"/><feFuncG type="linear" slope="0" intercept="0.5019608"/><feFuncB type="linear" slope="0" intercept="0.33333334"/><feFuncA type="linear" slope="0.67" intercept="0"/></feComponentTransfer></filter></defs><g id="p.1"><path fill="#000000" fill-opacity="0.0" d="m0 0.015748031l113.385826 0l0 113.385826l-113.385826 0z" fill-rule="evenodd"/><path fill="#443a27" d="m81.921875 17.771791q0.84375 -0.625 2.859375 -3.593751q2.015625 -2.96875 2.015625 -3.765625q0 -1.078125 -0.4375 -2.09375q-0.421875 -1.015625 -0.421875 -2.15625q0 -1.640625 1.265625 -2.578125q1.28125 -0.9375 2.8125 -0.9375q1.8125 0 3.5625 1.484375q1.765625 1.46875 3.0625 4.25q4.25 0 6.71875 2.125q2.46875 2.109375 2.46875 5.906251q0 2.390625 -2.1875 4.03125q-2.1875 1.640625 -4.5625 1.640625q-1.359375 0 -2.609375 -1.15625q-1.234375 -1.171875 -1.6875 -2.578125q-2.09375 2.59375 -4.453125 5.09375q-2.34375 2.484375 -4.328125 5.203125q0.34375 1.9375 0.5625 3.890623q0.234375 1.953125 0.234375 3.9375q0 2.828125 -0.375 5.578125q-0.375 2.734375 -1.28125 5.40625q0.796875 0.671875 1.28125 1.984375q0.484375 1.296875 0.484375 2.3125q0 2.21875 -2.125 3.859375q-2.125 1.640625 -3.828125 3.40625q-1.703125 1.75 -1.703125 4.46875l0.125 3.21875q2.140625 3.0 4.75 5.84375q2.609375 2.828125 4.984375 5.65625q0.515625 -1.125 1.5625 -2.09375q1.046875 -0.96875 2.34375 -0.96875q2.78125 0 5.125 2.25q2.359375 2.234375 2.359375 4.890625q0 6.6875 -6.625 6.6875l-1.53125 -0.109375q-1.3125 2.4375 -3.1875 3.984375q-1.859375 1.5625 -3.78125 1.5625q-1.59375 0 -2.84375 -0.96875q-1.234375 -0.953125 -1.234375 -2.59375q0 -1.140625 0.421875 -2.15625q0.421875 -1.015625 0.421875 -2.09375q0 -0.859375 -2.09375 -3.90625q-2.09375 -3.0625 -3.109375 -3.921875l-0.453125 0.34375q-0.515625 1.765625 -1.734375 3.0625q-1.21875 1.296875 -2.90625 2.03125l0.109375 0q-4.03125 2.265625 -6.546875 2.953125q-2.515625 0.671875 -6.25 0.671875q-3.515625 0 -6.015625 -0.609375q-2.484375 -0.625 -6.734375 -3.015625l0.109375 0q-3.390625 -1.46875 -4.703125 -5.140625l-0.390625 -0.296875q-0.90625 0.578125 -3.484375 4.171875q-2.578125 3.59375 -2.578125 4.390625q0 1.015625 0.453125 2.03125q0.453125 1.03125 0.453125 2.15625q0 1.640625 -1.28125 2.609375q-1.265625 0.96875 -2.859375 0.96875q-1.859375 0 -3.703125 -1.484375q-1.84375 -1.46875 -3.25 -4.015625q-3.75 -0.34375 -6.046875 -2.640625q-2.28125 -2.296875 -2.28125 -6.140625q0 -2.046875 2.3125 -3.515625q2.328125 -1.46875 4.765625 -1.46875q1.296875 0 2.34375 0.96875q1.046875 0.953125 1.5625 2.09375q1.25 -1.53125 2.71875 -3.0625l2.9375 -3.0625q1.484375 -1.53125 2.859375 -3.078125q1.390625 -1.5625 2.53125 -3.203125l0.171875 -1.46875q0 -0.75 0.046875 -1.53125q0 -3.625 -3.859375 -6.40625q-3.84375 -2.78125 -3.84375 -5.4375q0 -1.078125 0.421875 -2.34375q0.4375 -1.28125 1.515625 -1.84375q-0.859375 -1.46875 -1.375 -4.609375q-0.5 -3.15625 -0.5 -6.375q0 -1.53125 0.109375 -3.09375q0.109375 -1.5624981 0.34375 -3.093748q-2.15625 -3.0 -4.84375 -5.90625q-2.6875 -2.921875 -5.015625 -5.8125q-0.84375 1.359375 -2.296875 2.21875q-1.4375 0.84375 -3.078125 0.84375q-2.71875 0 -4.203125 -1.046875q-1.46875 -1.046875 -1.46875 -3.890625q0 -3.906251 2.265625 -6.046876q2.265625 -2.15625 6.125 -2.265625q1.296875 -2.4375 3.15625 -3.96875q1.875 -1.53125 3.8125 -1.53125q1.578125 0 2.828125 0.96875q1.25 0.953125 1.25 2.59375q0 1.140625 -0.4375 2.15625q-0.421875 1.015625 -0.421875 2.046875q0 0.5625 2.546875 4.359375q2.5625 3.796876 3.296875 4.296876q3.5625 -7.015626 9.734375 -10.406251q6.171875 -3.40625 14.0 -3.40625q7.296875 0 13.15625 2.953125q5.875 2.9375 9.609375 9.328126zm-45.265625 19.484373q-0.453125 0.6875 -1.234375 1.078125l-1.53125 0.796875l-0.109375 1.421875q0 1.0625 0.359375 1.859375q0.375 0.796875 0.703125 1.359375l0.75 1.1875q0.328125 0.578125 0.328125 1.25q0 0.5625 -0.109375 1.015625l-0.34375 0.96875q-0.109375 0.390625 -0.21875 0.84375q-0.109375 0.453125 -0.109375 0.90625l0 0.40625l-0.796875 1.640625q2.65625 4.25 6.046875 6.03125q3.40625 1.78125 4.875 3.140625l-0.90625 0.109375q-0.953125 0.171875 -1.78125 0.578125q-0.8125 0.390625 -0.8125 1.0625q0 0.796875 0.109375 1.59375l0.109375 1.640625q-0.453125 0.90625 -0.59375 1.9375q-0.140625 1.015625 -0.140625 1.96875q0 1.46875 0.21875 2.890625q0.234375 1.421875 0.625 2.828125l2.953125 3.125q1.015625 3.171875 5.0625 5.015625q4.0625 1.828125 9.046875 1.828125q7.296875 0 12.734375 -4.640625q5.4375 -4.640625 5.4375 -11.609375q0 -1.359375 -0.171875 -2.6875q-0.171875 -1.328125 -0.453125 -2.640625q-0.78125 -0.625 -1.53125 -1.328125q-0.734375 -0.703125 -1.234375 -1.5q1.1875 -0.5625 2.765625 -0.734375q1.984375 -2.046875 4.0 -3.96875q2.015625 -1.921875 3.3125 -4.53125l-0.90625 -1.578125l-0.515625 -0.96875q-0.21875 -0.453125 -0.21875 -0.625q0 -0.84375 0.8125 -2.265625q0.828125 -1.421875 0.828125 -2.484375q0 -1.25 -0.140625 -2.265625q-0.140625 -1.03125 -0.140625 -1.875q0 -0.515625 0.046875 -1.015625l-1.859375 -2.328125q-1.46875 -0.34375 -2.609375 -1.015625l-2.265625 -1.359375q-1.078125 -0.5625 -2.390625 -1.078125q-1.296875 -0.515625 -3.046875 -0.515625q-2.828125 0 -6.28125 1.671875q-3.453125 1.671875 -5.328125 1.671875q-2.546875 0 -6.625 -1.71875q-4.078125 -1.734375 -6.75 -1.734375q-1.6875 0 -5.234375 2.125q-3.53125 2.125 -4.734375 2.515625zm2.4375 -19.140623q0 2.328125 0.34375 4.5625q0.34375 2.234375 0.34375 4.5625q0 1.53125 -0.34375 3.0625q-0.34375 1.515625 -0.796875 2.999998l0.796875 1.0625q1.421875 -1.234375 3.390625 -2.3125q1.984375 -1.0781231 3.921875 -1.0781231q3.84375 0 7.640625 2.046873q3.796875 2.03125 5.828125 2.03125q0.90625 0 2.328125 -0.5625l3.171875 -1.25q1.703125 -0.6875 3.703125 -1.2499981q2.015625 -0.5625 4.109375 -0.5625q0.734375 0 1.46875 0.34375q0.75 0.3281231 1.421875 0.8437481l1.359375 1.015625q0.625 0.515625 1.25 0.859375l0.796875 -1.078125q-0.625 -2.156248 -0.9375 -4.140623q-0.3125 -1.984375 -0.3125 -4.1875q0 -1.640625 0.109375 -3.3125q0.109375 -1.671875 0.6875 -3.203125q-2.390625 -4.984376 -7.75 -7.984376q-5.34375 -3.0 -12.46875 -3.0q-6.921875 0 -12.28125 2.8125q-5.34375 2.796875 -7.78125 7.718751zm6.75 53.578125q-0.171875 -0.84375 -0.171875 -1.6875q0 -0.75 1.359375 -1.8125q1.359375 -1.078125 2.765625 -1.703125q1.421875 -0.625 3.515625 -1.703125q2.09375 -1.078125 5.78125 -1.078125q3.0625 0 5.265625 0.625q2.203125 0.625 5.15625 2.5l2.546875 3.390625l0 0.90625q0 0.84375 -0.09375 1.875q-0.078125 1.015625 -0.125 1.859375q0.28125 0.28125 0.46875 0.6875q0.203125 0.390625 0.203125 0.84375q0 0.734375 -0.859375 1.046875q-0.84375 0.3125 -1.46875 0.3125q-1.46875 0 -3.0 -0.5q-1.53125 -0.515625 -2.890625 -1.140625l-2.59375 0.453125q-1.359375 0.234375 -2.671875 0.234375q-1.359375 0 -2.75 -0.484375q-1.375 -0.484375 -2.796875 -0.484375q-0.625 0 -1.640625 0.140625q-1.015625 0.140625 -2.046875 0.375l-2.09375 0.390625q-1.015625 0.21875 -1.640625 0.390625q-0.21875 -0.171875 -0.21875 -0.671875l-0.0625 -0.34375q0 -0.453125 0.046875 -0.953125q0.0625 -0.515625 0.1875 -0.96875l0.15625 -0.859375l-0.328125 -1.640625zm34.71875 -30.921875q0 3.625 -1.953125 5.4375q-1.953125 1.8125 -6.546875 1.8125q-3.234375 0 -6.265625 -3.140625q-3.015625 -3.140625 -3.015625 -5.40625q0 -2.390625 2.40625 -3.75q2.40625 -1.359375 5.34375 -1.359375q3.40625 0 6.71875 1.796875q3.3125 1.78125 3.3125 4.609375zm-24.984375 -1.296875q0 1.40625 -1.046875 2.484375q-1.046875 1.078125 -2.171875 1.703125q-0.96875 1.8125 -2.421875 3.09375q-1.4375 1.265625 -3.640625 1.265625q-4.59375 0 -6.546875 -1.8125q-1.953125 -1.8125 -1.953125 -5.4375q0 -2.828125 3.3125 -4.609375q3.3125 -1.796875 6.71875 -1.796875q2.9375 0 5.34375 1.359375q2.40625 1.359375 2.40625 3.75zm-15.6875 37.828125l-0.796875 -1.40625l-0.171875 -1.875q-0.109375 -0.90625 -0.109375 -1.875l0.0625 -1.921875q-0.796875 1.296875 -1.9375 2.375q-1.125 1.078125 -2.375 1.984375q-1.234375 2.046875 -2.890625 3.890625q-1.640625 1.828125 -3.5625 3.3125q-0.625 -0.96875 -1.703125 -1.734375q-1.078125 -0.765625 -2.265625 -0.765625q-2.140625 0 -3.3125 0.828125q-1.15625 0.8125 -1.15625 2.171875q0 2.15625 2.171875 3.328125q2.1875 1.15625 4.96875 1.15625q0.390625 1.53125 1.609375 3.078125q1.21875 1.5625 2.578125 1.5625q0.96875 0 1.984375 -0.515625q1.015625 -0.5 1.015625 -1.640625q0 -1.015625 -0.5625 -1.96875q-0.5625 -0.96875 -0.5625 -1.765625q0 -0.40625 3.1875 -4.046875q3.203125 -3.65625 3.828125 -4.171875zm-7.421875 -49.78125q0.453125 -1.640625 0.953125 -3.28125q0.515625 -1.65625 1.140625 -3.234375q-0.21875 -0.109375 -0.84375 -0.796875l-3.171875 -3.515625q-0.96875 -1.015626 -1.703125 -1.921876l-1.296875 -1.46875q-0.515625 -0.5625 -0.515625 -0.625q0 -0.515625 0.234375 -1.015625l0.78125 -1.921875q0.171875 -0.515625 0.171875 -1.078125q0 -1.03125 -0.84375 -1.5625q-0.84375 -0.53125 -1.8125 -0.53125q-1.46875 0 -2.71875 1.25q-1.25 1.234375 -1.8125 3.328125l-0.5625 0q-2.84375 0 -4.71875 1.046875q-1.859375 1.046875 -1.859375 2.921875q0 1.750001 1.359375 2.406251q1.359375 0.65625 3.125 0.65625q1.1875 0 2.234375 -0.765625q1.046875 -0.765625 1.671875 -1.734376q3.171875 2.437501 4.953125 4.984376q1.78125 2.546875 2.6875 3.265625q0.90625 0.703125 2.546875 3.59375zm50.359375 -8.109375q0.84375 1.53125 1.40625 3.203125q0.578125 1.671875 1.03125 3.375q0.78125 -1.296875 1.71875 -2.578125q0.9375 -1.28125 2.234375 -2.1875q0.96875 -1.578125 2.328125 -3.1875q1.359375 -1.625 3.0 -2.578126q0.625 1.078126 1.71875 2.062501q1.109375 0.984375 2.421875 0.984375q1.8125 0 3.03125 -0.84375q1.21875 -0.84375 1.21875 -2.656251q0 -1.9375 -1.953125 -2.890625q-1.953125 -0.96875 -5.078125 -0.96875l-0.90625 0q-0.453125 -2.09375 -1.609375 -3.453125q-1.15625 -1.359375 -2.640625 -1.359375q-0.90625 0 -1.75 0.578125q-0.84375 0.5625 -0.84375 1.515625q0 0.5625 0.21875 1.078125l0.796875 1.921875q0.171875 0.515625 0.171875 1.03125q0 0.15625 -3.015625 3.421875q-3.0 3.250001 -3.5 3.531251zm-3.34375 50.921875q0 1.03125 0.0625 1.9375l0 0.328125q0 1.3125 -0.3125 2.46875q-0.3125 1.15625 -1.046875 2.34375q0.734375 0.625 3.609375 3.828125q2.890625 3.203125 2.890625 3.59375q0 0.734375 -0.59375 1.734375q-0.59375 0.984375 -0.59375 2.015625q0 1.125 0.984375 1.609375q1.0 0.484375 1.96875 0.484375q1.359375 0 2.59375 -1.5q1.25 -1.5 1.65625 -3.09375q0.625 0.171875 1.53125 0.3125q0.90625 0.140625 1.578125 0.140625q1.75 0 2.765625 -0.703125q1.03125 -0.71875 1.03125 -2.1875q0 -2.03125 -1.3125 -3.53125q-1.296875 -1.5 -3.5 -1.5q-1.1875 0 -2.234375 0.765625q-1.046875 0.75 -1.671875 1.71875q-1.765625 -1.125 -3.1875 -2.796875q-1.40625 -1.671875 -2.53125 -3.4375q-1.25 -0.78125 -2.109375 -2.03125q-0.84375 -1.25 -1.578125 -2.5zm-16.59375 -18.0q0.734375 0.78125 1.296875 2.09375q0.5625 1.296875 0.5625 2.4375q0 1.0625 -0.90625 2.453125q-0.90625 1.390625 -1.859375 1.390625q-0.734375 0 -1.53125 -0.3125q-0.796875 -0.3125 -1.296875 -0.875q-0.453125 0.5625 -1.25 0.875q-0.796875 0.3125 -1.53125 0.3125q-1.015625 0 -1.90625 -1.390625q-0.875 -1.390625 -0.875 -2.453125q0 -1.53125 2.125 -5.859375q2.125 -4.34375 3.4375 -4.34375q1.125 0 2.21875 1.90625q1.109375 1.890625 1.515625 3.765625zm-15.8125 20.546875l1.65625 -0.609375l0.671875 -1.359375l0.109375 -1.875l0.625 -0.453125l0.109375 3.0l1.59375 -1.25q0.453125 -0.109375 0.90625 -0.328125q0.453125 -0.234375 0.734375 -0.625l0 -2.328125l0.6875 -0.21875l0.734375 3.0l1.921875 -0.34375l-0.34375 -2.65625l0.734375 -0.34375l0.6875 3.0l1.015625 0.109375l0 -3.34375l0.84375 0l0 3.234375l1.59375 -0.109375l0.21875 -2.890625l1.078125 0.21875l-0.328125 2.890625l1.46875 0.859375l0.734375 0l0.21875 -3.40625l0.578125 0.109375l-0.125 3.171875l0.859375 -0.109375q0.5625 0 1.0625 0.171875q0.515625 0.171875 0.859375 0.625l-0.109375 -2.890625l0.671875 0.109375l-0.21875 3.125l0.5625 1.1875l1.75 1.359375l0 -2.21875q0 -0.625 -0.15625 -1.40625l-0.296875 -1.359375l-1.75 -1.25l-0.796875 0.109375l-0.90625 -0.5q-0.453125 -0.90625 -1.359375 -0.90625l-0.109375 0q-1.015625 0 -1.8125 0.453125q-0.5625 -0.6875 -2.203125 -1.015625q-1.640625 -0.34375 -3.453125 -0.34375q-0.453125 0 -0.859375 0.109375l-0.90625 0.21875q0 0.234375 -0.390625 0.234375l-0.515625 0l-1.40625 0.671875q-0.234375 -0.171875 -0.5 -0.3125q-0.25 -0.140625 -0.53125 -0.140625q-0.671875 0 -0.953125 0.625q-0.28125 0.625 -0.34375 1.25l-1.140625 -0.109375l-1.296875 0.453125l-0.796875 1.015625l-1.40625 0.34375l0.328125 3.046875zm0.40625 2.4375l1.25 -0.625l1.0625 1.078125l1.25 -1.640625l1.53125 0.859375l1.25 -1.65625l1.640625 0.90625l1.015625 1.203125l1.421875 -1.875q0.28125 0.625 0.78125 1.140625q0.515625 0.5 1.203125 0.5q0.5 0 1.015625 -0.25q0.515625 -0.265625 0.796875 -0.71875l0.953125 -0.78125q1.9375 1.75 3.09375 2.15625q1.15625 0.390625 3.140625 0.390625l1.296875 -0.5625l-0.671875 -1.53125l-1.75 0.671875q0.390625 -0.796875 0.390625 -1.53125q0 -0.671875 -0.9375 -1.296875q-0.9375 -0.625 -1.890625 -0.96875l-0.234375 3.0l-0.671875 -0.328125l0 -2.546875q-0.6875 -0.171875 -1.34375 -0.375q-0.640625 -0.203125 -1.375 -0.3125l0 3.109375l-0.90625 0.234375l-0.234375 -3.109375l-1.984375 -0.34375l-0.109375 3.0l-0.453125 0l-0.34375 -3.0l-2.890625 0.34375l0.234375 2.765625l-0.515625 0l-0.671875 -2.4375l-1.359375 1.25l-0.40625 1.75l-0.328125 0q-0.125 -0.390625 -0.40625 -0.890625q-0.28125 -0.515625 -0.78125 -0.515625l-0.171875 0.046875l-0.578125 2.15625q-0.5 -0.109375 -0.84375 -0.609375q-0.34375 -0.515625 -0.453125 -0.96875q-0.796875 0.28125 -1.421875 0.78125l0.40625 1.53125zm-9.515625 -54.65625q-1.53125 2.71875 -2.671875 5.640625q-1.125 2.921875 -1.125 6.140623q0 0.796875 0.078125 1.65625q0.09375 0.84375 0.203125 1.625q1.921875 -0.15625 3.0 -3.890623q1.078125 -3.75 1.078125 -7.546875q0 -0.90625 -0.171875 -1.8125l-0.390625 -1.8125zm43.5 10.9375l1.359375 1.9843731q0.671875 1.015625 1.078125 1.921875q0 -0.5625 -0.0625 -1.140625l0.0625 -2.265625q0 -3.046873 -0.71875 -5.843748q-0.703125 -2.8125 -2.34375 -5.359375l-0.6875 3.34375q-0.328125 1.6875 -0.328125 3.390625q0 0.96875 0.46875 1.96875q0.484375 0.984375 1.171875 2.0zm-27.296875 14.718748l-5.4375 5.109375l-4.203125 0.453125l-3.5625 -1.140625l-1.140625 -1.125q-0.5625 -0.515625 -1.1875 -0.96875l0 -0.734375q0.625 0.21875 3.03125 1.109375q2.40625 0.875 3.828125 0.875q3.515625 0 4.921875 -1.15625q1.421875 -1.171875 3.96875 -3.609375l-0.21875 1.1875zm-5.671875 -17.843748q0 -0.109375 0.109375 -0.21875q0.125 -0.109375 0.234375 -0.109375l0.109375 0.046875l2.71875 0.796875l3.234375 0.90625q1.640625 0.453125 3.171875 0.765625q1.53125 0.3125 2.59375 0.3125q0.171875 0 1.140625 -0.1875q0.96875 -0.203125 2.4375 -0.546875l6.0625 -1.421875l2.3125 -0.625q0.96875 -0.21875 1.140625 -0.328125l0.796875 0.109375q0.390625 0.109375 0.734375 0.28125q-0.125 0.171875 -0.6875 0.171875q-2.890625 0 -7.453125 1.921875q-4.546875 1.9218731 -7.15625 1.9218731q-1.359375 0 -6.4375 -1.5468731q-5.0625 -1.5625 -5.0625 -2.25zm30.75 19.437498l0 0.734375q-0.328125 0.34375 -1.125 0.828125q-0.796875 0.46875 -1.703125 0.921875l-1.75 0.859375l-1.359375 0.625l-4.640625 -1.65625l-4.140625 -3.453125l-0.109375 -0.5625l1.984375 1.75q1.234375 1.140625 2.421875 1.546875q1.203125 0.390625 3.578125 0.390625q1.40625 0 3.78125 -0.875q2.390625 -0.890625 3.0625 -1.109375zm-27.1875 30.1875q0.578125 -0.34375 1.1875 -0.59375q0.625 -0.25 1.25 -0.375q1.03125 0.40625 2.15625 0.796875q1.140625 0.390625 2.265625 0.390625q0.90625 0 1.71875 -0.328125q0.828125 -0.34375 1.6875 -0.34375l2.203125 0q0.109375 0 0.5625 0.171875l0.96875 0.34375q0.21875 0.109375 0.75 0.390625q0.546875 0.28125 0.546875 0.34375q0 0.109375 -0.109375 0.171875q-0.109375 0.046875 -0.171875 0.046875q-0.96875 -0.453125 -1.9375 -0.734375q-0.953125 -0.28125 -1.96875 -0.28125q-1.140625 0 -2.125 0.5625q-0.984375 0.5625 -2.125 0.5625q-1.1875 0 -2.046875 -0.5q-0.84375 -0.515625 -2.03125 -0.6875l-0.390625 0q-0.859375 0 -2.21875 0.28125l-0.171875 -0.21875z" fill-rule="nonzero"/></g></g></svg>