<svg version="1.1" viewBox="0.0 0.0 113.38582677165354 113.38582677165354" fill="none" stroke="none" stroke-linecap="square" stroke-miterlimit="10" xmlns:xlink="http://www.w3.org/1999/xlink" xmlns="http://www.w3.org/2000/svg"><clipPath id="p.0"><path d="m0 0l113.385826 0l0 113.385826l-113.385826 0l0 -113.385826z" clip-rule="nonzero"/></clipPath><g clip-path="url(#p.0)"><path fill="#000000" fill-opacity="0.0" d="m0 0l113.385826 0l0 113.385826l-113.385826 0z" fill-rule="evenodd"/><g filter="url(#shadowFilter-p.1)"><use xlink:href="#p.1" transform="matrix(1.0 0.0 0.0 1.0 1.854367716535433 0.7492131233595782)"/></g><defs><filter id="shadowFilter-p.1" filterUnits="userSpaceOnUse"><feGaussianBlur in="SourceAlpha" stdDeviation="0.5" result="blur"/><feComponentTransfer in="blur" color-interpolation-filters="sRGB"><feFuncR type="linear" slope="0" intercept="0.77254903"/><feFuncG type="linear" slope="0" intercept="0.5019608"/><feFuncB type="linear" slope="0" intercept="0.33333334"/><feFuncA type="linear" slope="0.67" intercept="0"/></feComponentTransfer></filter></defs><g id="p.1"><path fill="#000000" fill-opacity="0.0" d="m0 0.015748031l113.385826 0l0 113.385826l-113.385826 0z" fill-rule="evenodd"/><path fill="#443a27" d="m49.670307 9.544915l4.984375 0l0 -4.5l4.140625 0l0 4.5l4.921875 0l0 2.421875l-4.921875 0l0 7.234376q5.812496 0.890625 5.812496 5.6875l-0.484375 7.812498q5.625 -5.859373 13.8125 -5.859373q6.875 0 10.84375 4.53125q3.96875 4.531248 3.96875 12.109373q0 5.21875 -3.0 11.328125q-2.984375 6.09375 -10.34375 14.03125l1.671875 24.640625q0 3.265625 -6.578125 5.15625q-6.578125 1.890625 -17.781246 1.890625q-11.25 0 -17.828125 -1.921875q-6.578125 -1.921875 -6.578125 -5.125l1.71875 -24.640625q-13.390625 -14.15625 -13.390625 -25.359375q0 -7.578125 3.96875 -12.109373q3.96875 -4.53125 10.84375 -4.53125q8.0 0 13.859375 5.859373l-0.53125 -7.999998q0 -4.609375 5.875 -5.5l0 -7.234376l-4.984375 0l0 -2.421875zm9.59375 50.640625l0 4.390625q2.90625 0 7.499996 0.53125q4.59375 0.53125 8.5 1.296875q5.328125 -5.5 8.671875 -11.59375q3.359375 -6.109375 3.359375 -10.734375q0 -5.453125 -2.4375 -8.765625q-2.421875 -3.312498 -7.15625 -3.312498q-7.828125 0 -13.140625 9.124998q-5.296871 9.109375 -5.296871 19.0625zm-33.109375 -16.109375q0 4.625 3.375 10.78125q3.375 6.15625 8.59375 11.546875q9.171875 -1.828125 16.046875 -1.828125l0 -3.84375q0 -10.546875 -5.359375 -19.640625q-5.359375 -9.093748 -13.125 -9.093748q-4.5 0 -7.015625 3.171873q-2.515625 3.15625 -2.515625 8.90625zm12.078125 40.40625l-0.234375 3.203125q6.46875 -2.203125 18.71875 -2.203125q12.328121 0 18.781246 2.203125l-0.34375 -3.203125q-3.4375 -1.015625 -8.515625 -1.71875q-5.062496 -0.71875 -9.921871 -0.71875q-4.859375 0 -9.984375 0.75q-5.109375 0.734375 -8.5 1.6875zm0.890625 -9.546875l-0.234375 3.390625q1.78125 -0.71875 7.109375 -1.390625q5.328125 -0.6875 10.71875 -0.6875q4.984375 0 10.406246 0.65625q5.421875 0.640625 7.546875 1.421875l-0.234375 -3.390625q-8.0 -2.0625 -17.718746 -2.0625q-9.765625 0 -17.59375 2.0625zm17.59375 -29.734375q1.484375 -4.625 3.375 -7.40625l0 -11.546873q0 -2.1875 -0.890625 -3.078125q-0.875 -0.890625 -2.484375 -0.890625q-3.4375 0 -3.4375 3.96875l0 11.546873q1.671875 2.671875 3.4375 7.40625zm-5.625 15.34375l0 0.65625q-4.265625 0 -12.4375 1.359375q-8.765625 -10.3125 -8.765625 -17.359375q0 -4.328125 1.765625 -6.84375q1.78125 -2.515625 5.28125 -2.515625q5.859375 0 10.0 7.890625q4.15625 7.875 4.15625 16.8125zm32.406246 -15.34375q0 3.3125 -2.21875 7.828125q-2.21875 4.5 -6.484375 9.53125q-8.171875 -1.359375 -12.499996 -1.359375l0 -0.65625q0 -8.640625 4.140621 -16.671875q4.15625 -8.03125 10.078125 -8.03125q3.4375 0 5.203125 2.515625q1.78125 2.515625 1.78125 6.84375zm-26.781246 -3.203125q-0.46875 -1.421875 -0.796875 -2.8125q-0.328125 -1.390625 -0.796875 -2.390625l0 -8.593748q0 -0.890625 0.234375 -1.828125q0.234375 -0.953125 1.359375 -0.953125q1.421875 0 1.421875 2.78125l0 8.593748q-0.46875 1.0 -0.765625 2.390625q-0.296875 1.390625 -0.65625 2.8125z" fill-rule="nonzero"/></g></g></svg>