<svg version="1.1" viewBox="0.0 0.0 113.38582677165354 113.38582677165354" fill="none" stroke="none" stroke-linecap="square" stroke-miterlimit="10" xmlns:xlink="http://www.w3.org/1999/xlink" xmlns="http://www.w3.org/2000/svg"><clipPath id="p.0"><path d="m0 0l113.385826 0l0 113.385826l-113.385826 0l0 -113.385826z" clip-rule="nonzero"/></clipPath><g clip-path="url(#p.0)"><path fill="#000000" fill-opacity="0.0" d="m0 0l113.385826 0l0 113.385826l-113.385826 0z" fill-rule="evenodd"/><g filter="url(#shadowFilter-p.1)"><use xlink:href="#p.1" transform="matrix(1.0 0.0 0.0 1.0 1.854367716535433 0.7492131233595782)"/></g><defs><filter id="shadowFilter-p.1" filterUnits="userSpaceOnUse"><feGaussianBlur in="SourceAlpha" stdDeviation="0.5" result="blur"/><feComponentTransfer in="blur" color-interpolation-filters="sRGB"><feFuncR type="linear" slope="0" intercept="0.77254903"/><feFuncG type="linear" slope="0" intercept="0.5019608"/><feFuncB type="linear" slope="0" intercept="0.33333334"/><feFuncA type="linear" slope="0.67" intercept="0"/></feComponentTransfer></filter></defs><g id="p.1"><path fill="#000000" fill-opacity="0.0" d="m0 0.015748031l113.385826 0l0 113.385826l-113.385826 0z" fill-rule="evenodd"/><path fill="#443a27" d="m90.46727 82.40741q-12.328125 0 -22.71875 2.53125q2.765625 -4.015625 11.140625 -11.140625l-15.390621 -11.375l-18.859375 4.703125l-26.171875 -19.046875l17.671875 -5.296875l15.984375 11.328125l10.140625 4.890625l0.1875 -0.390625l-7.65625 -7.71875l-16.234375 -11.78125l0 -18.843748l26.124996 19.046873l1.625 19.5l15.390625 11.125q4.0625 -10.046875 7.125 -14.0q0.453125 6.140625 2.078125 13.25q1.640625 7.09375 4.015625 13.328125l-4.453125 -0.109375z" fill-rule="nonzero"/></g></g></svg>