<svg version="1.1" viewBox="0.0 0.0 113.38582677165354 113.38582677165354" fill="none" stroke="none" stroke-linecap="square" stroke-miterlimit="10" xmlns:xlink="http://www.w3.org/1999/xlink" xmlns="http://www.w3.org/2000/svg"><clipPath id="p.0"><path d="m0 0l113.385826 0l0 113.385826l-113.385826 0l0 -113.385826z" clip-rule="nonzero"/></clipPath><g clip-path="url(#p.0)"><path fill="#000000" fill-opacity="0.0" d="m0 0l113.385826 0l0 113.385826l-113.385826 0z" fill-rule="evenodd"/><g filter="url(#shadowFilter-p.1)"><use xlink:href="#p.1" transform="matrix(1.0 0.0 0.0 1.0 1.854367716535433 0.7492131233595782)"/></g><defs><filter id="shadowFilter-p.1" filterUnits="userSpaceOnUse"><feGaussianBlur in="SourceAlpha" stdDeviation="0.5" result="blur"/><feComponentTransfer in="blur" color-interpolation-filters="sRGB"><feFuncR type="linear" slope="0" intercept="0.77254903"/><feFuncG type="linear" slope="0" intercept="0.5019608"/><feFuncB type="linear" slope="0" intercept="0.33333334"/><feFuncA type="linear" slope="0.67" intercept="0"/></feComponentTransfer></filter></defs><g id="p.1"><path fill="#000000" fill-opacity="0.0" d="m0 0.015748031l113.385826 0l0 113.385826l-113.385826 0z" fill-rule="evenodd"/><path fill="#443a27" d="m56.64799 10.730546q9.859379 0 18.281254 4.953125q8.421875 4.953126 13.203125 13.312501q4.796875 8.343748 4.796875 17.921873q0 9.703125 -4.796875 18.03125q-4.78125 8.328125 -13.234375 13.234375q-8.4375 4.90625 -18.250004 4.90625q-9.71875 0 -18.125 -4.828125q-8.390625 -4.84375 -13.25 -13.15625q-4.859375 -8.328125 -4.859375 -18.1875q0 -9.71875 4.875 -18.093748q4.890625 -8.375 13.265625 -13.234376q8.375 -4.859375 18.09375 -4.859375zm-8.890625 54.203125q-6.0 -3.125 -9.125 -9.140625l-5.8125 14.890625l14.9375 -5.75zm-9.125 -26.8125q3.125 -6.203123 9.125 -9.124998l-14.9375 -5.859375l5.8125 14.984373zm35.89063 17.671875q-2.9375 6.0625 -9.09375 9.140625l15.0 5.75l-5.90625 -14.890625zm-9.09375 -26.796873q6.15625 2.875 9.09375 9.124998l5.90625 -14.984373l-15.0 5.859375zm-15.187504 -0.984375q3.1875 -1.125 6.40625 -1.125q3.125 0 6.390625 1.125l-6.390625 -14.796876l-6.40625 14.796876zm12.796875 37.890625q-2.875 1.03125 -6.390625 1.03125q-3.421875 0 -6.40625 -1.03125l6.40625 14.703125l6.390625 -14.703125zm12.500004 -25.390625q1.078125 3.125 1.078125 6.40625q0 3.265625 -1.078125 6.390625l14.796875 -6.390625l-14.796875 -6.40625zm-37.89063 0l-14.6875 6.40625l14.6875 6.390625q-1.015625 -2.6875 -1.015625 -6.390625q0 -3.515625 1.015625 -6.40625zm19.0 -11.078123q-7.28125 0 -12.40625 5.203123q-5.125 5.1875 -5.125 12.28125q0 7.078125 5.125 12.28125q5.125 5.1875 12.40625 5.1875q7.171875 0 12.328129 -5.1875q5.15625 -5.203125 5.15625 -12.28125q0 -7.09375 -5.15625 -12.28125q-5.156254 -5.203123 -12.328129 -5.203123z" fill-rule="nonzero"/></g></g></svg>