<svg version="1.1" viewBox="0.0 0.0 113.38582677165354 113.38582677165354" fill="none" stroke="none" stroke-linecap="square" stroke-miterlimit="10" xmlns:xlink="http://www.w3.org/1999/xlink" xmlns="http://www.w3.org/2000/svg"><clipPath id="p.0"><path d="m0 0l113.385826 0l0 113.385826l-113.385826 0l0 -113.385826z" clip-rule="nonzero"/></clipPath><g clip-path="url(#p.0)"><path fill="#000000" fill-opacity="0.0" d="m0 0l113.385826 0l0 113.385826l-113.385826 0z" fill-rule="evenodd"/><g filter="url(#shadowFilter-p.1)"><use xlink:href="#p.1" transform="matrix(1.0 0.0 0.0 1.0 -1.5320889763779528 -1.285575328083986)"/></g><defs><filter id="shadowFilter-p.1" filterUnits="userSpaceOnUse"><feGaussianBlur in="SourceAlpha" stdDeviation="0.5" result="blur"/><feComponentTransfer in="blur" color-interpolation-filters="sRGB"><feFuncR type="linear" slope="0" intercept="0.77254903"/><feFuncG type="linear" slope="0" intercept="0.5019608"/><feFuncB type="linear" slope="0" intercept="0.33333334"/><feFuncA type="linear" slope="0.67" intercept="0"/></feComponentTransfer></filter></defs><g id="p.1"><path fill="#000000" fill-opacity="0.0" d="m0 0.015748031l113.385826 0l0 113.385826l-113.385826 0z" fill-rule="evenodd"/><path fill="#443a27" d="m82.668 91.47741l0 3.765625q-5.359375 1.484375 -11.609375 1.484375q-17.765621 0 -29.093746 -10.890625q-11.3125 -10.90625 -11.3125 -28.453125q0 -17.421875 11.28125 -28.374998q11.296875 -10.96875 29.124996 -10.96875q6.25 0 11.609375 1.5l0 3.765625q-14.9375 0 -23.937496 9.437498q-8.984375 9.421875 -8.984375 24.640625q0 15.171875 8.984375 24.640625q8.999996 9.453125 23.937496 9.453125zm-11.78125 1.828125q-11.781246 -2.65625 -18.984371 -12.53125q-7.1875 -9.875 -7.1875 -23.390625q0 -13.4375 7.15625 -23.34375q7.171875 -9.906248 19.015621 -12.562498q-9.687496 0 -17.718746 4.65625q-8.015625 4.640625 -12.75 13.187498q-4.71875 8.546875 -4.71875 18.0625q0 9.640625 4.75 18.140625q4.765625 8.484375 12.75 13.140625q8.0 4.640625 17.687496 4.640625z" fill-rule="nonzero"/></g></g></svg>