<svg version="1.1" viewBox="0.0 0.0 113.38582677165354 113.38582677165354" fill="none" stroke="none" stroke-linecap="square" stroke-miterlimit="10" xmlns:xlink="http://www.w3.org/1999/xlink" xmlns="http://www.w3.org/2000/svg"><clipPath id="p.0"><path d="m0 0l113.385826 0l0 113.385826l-113.385826 0l0 -113.385826z" clip-rule="nonzero"/></clipPath><g clip-path="url(#p.0)"><path fill="#000000" fill-opacity="0.0" d="m0 0l113.385826 0l0 113.385826l-113.385826 0z" fill-rule="evenodd"/><g filter="url(#shadowFilter-p.1)"><use xlink:href="#p.1" transform="matrix(1.0 0.0 0.0 1.0 1.854367716535433 0.7492131233595782)"/></g><defs><filter id="shadowFilter-p.1" filterUnits="userSpaceOnUse"><feGaussianBlur in="SourceAlpha" stdDeviation="0.5" result="blur"/><feComponentTransfer in="blur" color-interpolation-filters="sRGB"><feFuncR type="linear" slope="0" intercept="0.77254903"/><feFuncG type="linear" slope="0" intercept="0.5019608"/><feFuncB type="linear" slope="0" intercept="0.33333334"/><feFuncA type="linear" slope="0.67" intercept="0"/></feComponentTransfer></filter></defs><g id="p.1"><path fill="#000000" fill-opacity="0.0" d="m0 0.015748031l113.385826 0l0 113.385826l-113.385826 0z" fill-rule="evenodd"/><path fill="#443a27" d="m94.41069 23.13054q-2.296875 6.0625 -3.90625 13.015623q-1.609375 6.953125 -2.09375 13.15625q-1.515625 -1.90625 -3.453125 -5.78125q-1.921875 -3.890625 -3.578125 -8.03125l-15.1875 11.03125l-1.609375 19.1875l-25.781254 18.796875l0 -18.59375l16.015625 -11.625l7.5625 -7.578125l-0.1875 -0.390625l-10.015625 4.796875l-15.765625 11.171875l-17.4375 -5.171875l25.828125 -18.796875l18.609375 4.59375l15.187504 -11.187498q-8.5 -7.421875 -10.984375 -11.03125q10.484375 2.53125 22.40625 2.53125l1.8125 0l2.578125 -0.09375z" fill-rule="nonzero"/></g></g></svg>